<svg width="40" height="40" viewBox="0 0 40 40" fill="none" xmlns="http://www.w3.org/2000/svg">
<path d="M11.6126 0V11.6126H0V0H11.6126ZM3.20004 8.41258H8.41259V3.20003H3.20004V8.41258Z" fill="#8D8D8D"/>
<path d="M11.6126 14.1937V25.8063H0V14.1937H11.6126ZM3.20004 22.6063H8.41259V17.3937H3.20004V22.6063Z" fill="#8D8D8D"/>
<path d="M11.6126 28.3874V40H0V28.3874H11.6126ZM3.20004 36.8H8.41259V31.5874H3.20004V36.8Z" fill="#8D8D8D"/>
<path d="M25.8064 14.1937V25.8063H14.1937V14.1937H25.8064ZM17.3938 22.6063H22.6063V17.3937H17.3938V22.6063Z" fill="#8D8D8D"/>
<path d="M25.8064 28.3874V40H14.1937V28.3874H25.8064ZM17.3938 36.8H22.6063V31.5874H17.3938V36.8Z" fill="#8D8D8D"/>
<path d="M40 14.1937V25.8063H28.3873V14.1937H40ZM31.5874 22.6063H36.7999V17.3937H31.5874V22.6063Z" fill="#8D8D8D"/>
<path d="M40 28.3874V40H28.3873V28.3874H40ZM31.5874 36.8H36.7999V31.5874H31.5874V36.8Z" fill="#8D8D8D"/>
<path d="M25.8064 0V11.6126H14.1937V0H25.8064ZM17.3938 8.41258H22.6063V3.20003H17.3938V8.41258Z" fill="#8D8D8D"/>
<path d="M40 0V11.6126H28.3873V0H40ZM31.5874 8.41258H36.7999V3.20003H31.5874V8.41258Z" fill="#8D8D8D"/>
</svg>
