<svg width="1320" height="365" viewBox="0 0 1320 365" fill="none" xmlns="http://www.w3.org/2000/svg">
<path d="M1279.72 331.214H1293.11V344.607H1279.72V331.214ZM1293.11 331.214H1306.5V344.607H1293.11V331.214ZM1293.11 344.607H1306.5V358H1293.11V344.607ZM1279.72 344.607H1293.11V358H1279.72V344.607Z" fill="#18A402"/>
<path d="M1185.97 264.25H1199.36V277.643H1185.97V264.25ZM1199.36 277.643H1212.75V291.036H1199.36V277.643ZM1185.97 277.643H1199.36V291.036H1185.97V277.643ZM1185.97 291.036H1199.36V304.429H1185.97V291.036ZM1199.36 291.036H1212.75V304.429H1199.36V291.036ZM1199.36 304.429H1212.75V317.821H1199.36V304.429ZM1212.75 304.429H1226.15V317.821H1212.75V304.429ZM1226.15 304.429H1239.54V317.821H1226.15V304.429ZM1239.54 291.036H1252.93V304.429H1239.54V291.036ZM1226.15 291.036H1239.54V304.429H1226.15V291.036ZM1212.75 291.036H1226.15V304.429H1212.75V291.036ZM1239.54 304.429H1252.93V317.821H1239.54V304.429ZM1252.93 304.429H1266.32V317.821H1252.93V304.429ZM1252.93 317.821H1266.32V331.214H1252.93V317.821ZM1239.54 317.821H1252.93V331.214H1239.54V317.821ZM1239.54 331.214H1252.93V344.607H1239.54V331.214ZM1252.93 331.214H1266.32V344.607H1252.93V331.214ZM1239.54 344.607H1252.93V358H1239.54V344.607ZM1226.15 331.214H1239.54V344.607H1226.15V331.214ZM1212.75 331.214H1226.15V344.607H1212.75V331.214ZM1199.36 331.214H1212.75V344.607H1199.36V331.214ZM1185.97 331.214H1199.36V344.607H1185.97V331.214ZM1199.36 344.607H1212.75V358H1199.36V344.607ZM1212.75 344.607H1226.15V358H1212.75V344.607ZM1226.15 344.607H1239.54V358H1226.15V344.607ZM1252.93 264.25H1266.32V277.643H1252.93V264.25ZM1239.54 264.25H1252.93V277.643H1239.54V264.25ZM1239.54 250.857H1252.93V264.25H1239.54V250.857ZM1226.15 250.857H1239.54V264.25H1226.15V250.857ZM1212.75 250.857H1226.15V264.25H1212.75V250.857ZM1199.36 250.857H1212.75V264.25H1199.36V250.857ZM1199.36 264.25H1212.75V277.643H1199.36V264.25ZM1212.75 264.25H1226.15V277.643H1212.75V264.25ZM1226.15 264.25H1239.54V277.643H1226.15V264.25Z" fill="#18A402"/>
<path d="M1172.54 264.25V277.643H1159.15V264.25H1172.54ZM1172.54 250.857V264.25H1159.15V250.857H1172.54ZM1159.15 250.857V264.25H1145.75V250.857H1159.15ZM1159.15 264.25V277.643H1145.75V264.25H1159.15ZM1159.15 277.643V291.036H1145.75V277.643H1159.15ZM1159.15 291.036V304.429H1145.75V291.036H1159.15ZM1159.15 304.429V317.821H1145.75V304.429H1159.15ZM1172.54 304.429V317.821H1159.15V304.429H1172.54ZM1172.54 291.036V304.429H1159.15V291.036H1172.54ZM1172.54 277.643V291.036H1159.15V277.643H1172.54ZM1172.54 317.821V331.214H1159.15V317.821H1172.54ZM1159.15 317.821V331.214H1145.75V317.821H1159.15ZM1159.15 331.214V344.607H1145.75V331.214H1159.15ZM1159.15 344.607V358H1145.75V344.607H1159.15ZM1172.54 344.607V358H1159.15V344.607H1172.54ZM1172.54 331.214V344.607H1159.15V331.214H1172.54ZM1105.57 344.607V358H1092.18V344.607H1105.57ZM1092.18 331.214V344.607H1078.79V331.214H1092.18ZM1092.18 317.821V331.214H1078.79V317.821H1092.18ZM1092.18 304.429V317.821H1078.79V304.429H1092.18ZM1092.18 291.036V304.429H1078.79V291.036H1092.18ZM1092.18 277.643V291.036H1078.79V277.643H1092.18ZM1092.18 264.25V277.643H1078.79V264.25H1092.18ZM1105.57 291.036V304.429H1092.18V291.036H1105.57ZM1105.57 304.429V317.821H1092.18V304.429H1105.57ZM1105.57 317.821V331.214H1092.18V317.821H1105.57ZM1105.57 331.214V344.607H1092.18V331.214H1105.57ZM1105.57 277.643V291.036H1092.18V277.643H1105.57ZM1118.97 264.25V277.643H1105.57V264.25H1118.97ZM1118.97 250.857V264.25H1105.57V250.857H1118.97ZM1105.57 250.857V264.25H1092.18V250.857H1105.57ZM1105.57 264.25V277.643H1092.18V264.25H1105.57ZM1132.36 250.857V264.25H1118.97V250.857H1132.36ZM1172.54 224.071V237.464H1159.15V224.071H1172.54ZM1159.15 224.071V237.464H1145.75V224.071H1159.15ZM1159.15 237.464V250.857H1145.75V237.464H1159.15ZM1172.54 237.464V250.857H1159.15V237.464H1172.54ZM1132.36 344.607V358H1118.97V344.607H1132.36ZM1118.97 344.607V358H1105.57V344.607H1118.97ZM1118.97 331.214V344.607H1105.57V331.214H1118.97ZM1132.36 331.214V344.607H1118.97V331.214H1132.36ZM1145.75 331.214V344.607H1132.36V331.214H1145.75ZM1145.75 250.857V264.25H1132.36V250.857H1145.75ZM1145.75 264.25V277.643H1132.36V264.25H1145.75ZM1132.36 264.25V277.643H1118.97V264.25H1132.36Z" fill="#18A402"/>
<path d="M985.039 264.25H998.432V277.643H985.039V264.25ZM985.039 250.857H998.432V264.25H985.039V250.857ZM998.432 250.857H1011.82V264.25H998.432V250.857ZM998.432 264.25H1011.82V277.643H998.432V264.25ZM998.432 277.643H1011.82V291.036H998.432V277.643ZM998.432 291.036H1011.82V304.429H998.432V291.036ZM998.432 304.429H1011.82V317.821H998.432V304.429ZM985.039 304.429H998.432V317.821H985.039V304.429ZM985.039 291.036H998.432V304.429H985.039V291.036ZM985.039 277.643H998.432V291.036H985.039V277.643ZM985.039 317.821H998.432V331.214H985.039V317.821ZM998.432 317.821H1011.82V331.214H998.432V317.821ZM998.432 331.214H1011.82V344.607H998.432V331.214ZM998.432 344.607H1011.82V358H998.432V344.607ZM985.039 344.607H998.432V358H985.039V344.607ZM985.039 331.214H998.432V344.607H985.039V331.214ZM1011.82 264.25H1025.22V277.643H1011.82V264.25ZM1025.22 264.25H1038.61V277.643H1025.22V264.25ZM1038.61 264.25H1052V277.643H1038.61V264.25ZM1038.61 250.857H1052V264.25H1038.61V250.857ZM1025.22 250.857H1038.61V264.25H1025.22V250.857ZM1011.82 277.643H1025.22V291.036H1011.82V277.643ZM1052 264.25H1065.4V277.643H1052V264.25ZM1038.61 277.643H1052V291.036H1038.61V277.643Z" fill="#18A402"/>
<path d="M904.647 250.857H918.04V264.25H904.647V250.857ZM891.254 250.857H904.647V264.25H891.254V250.857ZM891.254 264.25H904.647V277.643H891.254V264.25ZM904.647 264.25H918.04V277.643H904.647V264.25ZM918.04 250.857H931.433V264.25H918.04V250.857ZM931.433 250.857H944.826V264.25H931.433V250.857ZM944.826 250.857H958.218V264.25H944.826V250.857ZM944.826 264.25H958.218V277.643H944.826V264.25ZM931.433 264.25H944.826V277.643H931.433V264.25ZM958.218 264.25H971.611V277.643H958.218V264.25ZM958.218 277.643H971.611V291.036H958.218V277.643ZM958.218 331.214H971.611V344.607H958.218V331.214ZM944.826 331.214H958.218V344.607H944.826V331.214ZM944.826 277.643H958.218V291.036H944.826V277.643ZM931.433 331.214H944.826V344.607H931.433V331.214ZM944.826 344.607H958.218V358H944.826V344.607ZM931.433 344.607H944.826V358H931.433V344.607ZM918.04 344.607H931.433V358H918.04V344.607ZM904.647 344.607H918.04V358H904.647V344.607ZM891.254 344.607H904.647V358H891.254V344.607ZM891.254 331.214H904.647V344.607H891.254V331.214ZM904.647 331.214H918.04V344.607H904.647V331.214ZM891.254 317.821H904.647V331.214H891.254V317.821ZM877.861 331.214H891.254V344.607H877.861V331.214ZM877.861 317.821H891.254V331.214H877.861V317.821ZM877.861 304.429H891.254V317.821H877.861V304.429ZM877.861 291.036H891.254V304.429H877.861V291.036ZM877.861 277.643H891.254V291.036H877.861V277.643ZM877.861 264.25H891.254V277.643H877.861V264.25ZM891.254 277.643H904.647V291.036H891.254V277.643ZM891.254 291.036H904.647V304.429H891.254V291.036ZM891.254 304.429H904.647V317.821H891.254V304.429ZM918.04 331.214H931.433V344.607H918.04V331.214ZM918.04 264.25H931.433V277.643H918.04V264.25ZM944.826 291.036H958.218V304.429H944.826V291.036ZM958.218 291.036H971.611V304.429H958.218V291.036ZM904.647 304.429H918.04V317.821H904.647V304.429ZM918.04 304.429H931.433V317.821H918.04V304.429ZM931.433 304.429H944.826V317.821H931.433V304.429ZM944.826 304.429H958.218V317.821H944.826V304.429ZM958.218 304.429H971.611V317.821H958.218V304.429ZM931.433 291.036H944.826V304.429H931.433V291.036ZM918.04 291.036H931.433V304.429H918.04V291.036ZM904.647 291.036H918.04V304.429H904.647V291.036Z" fill="#18A402"/>
<path d="M770.684 264.25H784.076V277.643H770.684V264.25ZM770.684 250.857H784.076V264.25H770.684V250.857ZM784.076 250.857H797.469V264.25H784.076V250.857ZM784.076 264.25H797.469V277.643H784.076V264.25ZM784.076 277.643H797.469V291.036H784.076V277.643ZM784.076 291.036H797.469V304.429H784.076V291.036ZM784.076 304.429H797.469V317.821H784.076V304.429ZM770.684 304.429H784.076V317.821H770.684V304.429ZM770.684 291.036H784.076V304.429H770.684V291.036ZM770.684 277.643H784.076V291.036H770.684V277.643ZM770.684 317.821H784.076V331.214H770.684V317.821ZM784.076 317.821H797.469V331.214H784.076V317.821ZM784.076 331.214H797.469V344.607H784.076V331.214ZM784.076 344.607H797.469V358H784.076V344.607ZM770.684 344.607H784.076V358H770.684V344.607ZM770.684 331.214H784.076V344.607H770.684V331.214ZM837.648 344.607H851.041V358H837.648V344.607ZM851.041 344.607H864.434V358H851.041V344.607ZM851.041 331.214H864.434V344.607H851.041V331.214ZM851.041 317.821H864.434V331.214H851.041V317.821ZM851.041 304.429H864.434V317.821H851.041V304.429ZM851.041 291.036H864.434V304.429H851.041V291.036ZM851.041 277.643H864.434V291.036H851.041V277.643ZM851.041 264.25H864.434V277.643H851.041V264.25ZM837.648 291.036H851.041V304.429H837.648V291.036ZM837.648 304.429H851.041V317.821H837.648V304.429ZM837.648 317.821H851.041V331.214H837.648V317.821ZM837.648 331.214H851.041V344.607H837.648V331.214ZM837.648 277.643H851.041V291.036H837.648V277.643ZM797.469 264.25H810.862V277.643H797.469V264.25ZM810.862 264.25H824.255V277.643H810.862V264.25ZM824.255 264.25H837.648V277.643H824.255V264.25ZM824.255 250.857H837.648V264.25H824.255V250.857ZM837.648 250.857H851.041V264.25H837.648V250.857ZM837.648 264.25H851.041V277.643H837.648V264.25ZM810.862 250.857H824.255V264.25H810.862V250.857Z" fill="#18A402"/>
<path d="M26.0714 114.714H60.8333V149.476H26.0714V114.714Z" fill="#18A402"/>
<path d="M5.21423 149.476H39.9761V184.238H5.21423V149.476Z" fill="#18A402"/>
<path d="M0 184.238H34.7619V219H0V184.238Z" fill="#18A402"/>
<path d="M0 219H34.7619V253.762H0V219Z" fill="#18A402"/>
<path d="M8.6904 253.762H43.4523V288.524H8.6904V253.762Z" fill="#18A402"/>
<path d="M26.0714 288.524H60.8333V323.286H26.0714V288.524Z" fill="#18A402"/>
<path d="M60.8333 312.857H95.5952V347.619H60.8333V312.857Z" fill="#18A402"/>
<path d="M95.5953 330.238H130.357V365H95.5953V330.238Z" fill="#18A402"/>
<path d="M130.357 330.238H165.119V365H130.357V330.238Z" fill="#18A402"/>
<path d="M165.119 323.286H199.881V358.048H165.119V323.286Z" fill="#18A402"/>
<path d="M199.881 312.857H234.643V347.619H199.881V312.857Z" fill="#18A402"/>
<path d="M234.643 288.524H269.405V323.286H234.643V288.524Z" fill="#18A402"/>
<path d="M260.714 253.762H295.476V288.524H260.714V253.762Z" fill="#18A402"/>
<path d="M274.619 219H309.381V253.762H274.619V219Z" fill="#18A402"/>
<path d="M288.524 184.238H323.286V219H288.524V184.238Z" fill="#18A402"/>
<path d="M319.81 170.333H354.571V205.095H319.81V170.333Z" fill="#18A402"/>
<path d="M354.572 170.333H389.333V205.095H354.572V170.333Z" fill="#18A402"/>
<path d="M389.333 184.238H424.095V219H389.333V184.238Z" fill="#18A402"/>
<path d="M688.286 79.9524H723.047V114.714H688.286V79.9524Z" fill="#18A402"/>
<path d="M723.047 57.3571H757.809V92.119H723.047V57.3571Z" fill="#18A402"/>
<path d="M757.809 27.8095H792.571V62.5714H757.809V27.8095Z" fill="#18A402"/>
<path d="M792.571 0H827.333V34.7619H792.571V0Z" fill="#18A402"/>
<path d="M827.333 0H862.095V34.7619H827.333V0Z" fill="#18A402"/>
<path d="M827.333 34.7619H862.095V69.5238H827.333V34.7619Z" fill="#18A402"/>
<path d="M688.286 79.9524H723.047V114.714H688.286V79.9524Z" fill="#18A402"/>
<path d="M723.047 57.3571H757.809V92.119H723.047V57.3571Z" fill="#18A402"/>
<path d="M757.809 27.8095H792.571V62.5714H757.809V27.8095Z" fill="#18A402"/>
<path d="M792.571 0H827.333V34.7619H792.571V0Z" fill="#18A402"/>
<path d="M827.333 0H862.095V34.7619H827.333V0Z" fill="#18A402"/>
<path d="M827.333 34.7619H862.095V69.5238H827.333V34.7619Z" fill="#18A402"/>
<path d="M53.881 79.9524H88.6429V114.714H53.881V79.9524Z" fill="#18A402"/>
<path d="M88.6429 57.3571H123.405V92.119H88.6429V57.3571Z" fill="#18A402"/>
<path d="M123.405 27.8095H158.167V62.5714H123.405V27.8095Z" fill="#18A402"/>
<path d="M158.167 0H192.928V34.7619H158.167V0Z" fill="#18A402"/>
<path d="M192.929 0H227.69V34.7619H192.929V0Z" fill="#18A402"/>
<path d="M192.929 34.7619H227.69V69.5238H192.929V34.7619Z" fill="#18A402"/>
<path d="M274.619 149.476H309.381V184.238H274.619V149.476Z" fill="#18A402"/>
<path d="M257.238 114.714H292V149.476H257.238V114.714Z" fill="#18A402"/>
<path d="M222.476 86.9048H257.238V121.667H222.476V86.9048Z" fill="#18A402"/>
<path d="M187.714 79.9524H222.476V114.714H187.714V79.9524Z" fill="#18A402"/>
<path d="M152.952 76.4762H187.714V111.238H152.952V76.4762Z" fill="#18A402"/>
<path d="M118.19 76.4762H152.952V111.238H118.19V76.4762Z" fill="#18A402"/>
<path d="M88.6429 76.4762H123.405V111.238H88.6429V76.4762Z" fill="#18A402"/>
<path d="M686.548 114.714H651.786V149.476H686.548V114.714Z" fill="#18A402"/>
<path d="M712.619 149.476H677.857V184.238H712.619V149.476Z" fill="#18A402"/>
<path d="M719.571 184.238H684.81V219H719.571V184.238Z" fill="#18A402"/>
<path d="M716.095 219H681.333V253.762H716.095V219Z" fill="#18A402"/>
<path d="M703.929 253.762H669.167V288.524H703.929V253.762Z" fill="#18A402"/>
<path d="M686.548 288.524H651.786V323.286H686.548V288.524Z" fill="#18A402"/>
<path d="M651.786 312.857H617.024V347.619H651.786V312.857Z" fill="#18A402"/>
<path d="M617.024 330.238H582.262V365H617.024V330.238Z" fill="#18A402"/>
<path d="M582.262 330.238H547.5V365H582.262V330.238Z" fill="#18A402"/>
<path d="M547.5 323.286H512.738V358.048H547.5V323.286Z" fill="#18A402"/>
<path d="M512.738 312.857H477.976V347.619H512.738V312.857Z" fill="#18A402"/>
<path d="M477.976 288.524H443.214V323.286H477.976V288.524Z" fill="#18A402"/>
<path d="M477.976 288.524H443.214V323.286H477.976V288.524Z" fill="#18A402"/>
<path d="M455.381 253.762H420.619V288.524H455.381V253.762Z" fill="#18A402"/>
<path d="M438 219H403.238V253.762H438V219Z" fill="#18A402"/>
<path d="M658.738 92.119H623.976V126.881H658.738V92.119Z" fill="#18A402"/>
<path d="M438 149.476H403.238V184.238H438V149.476Z" fill="#18A402"/>
<path d="M455.381 114.714H420.619V149.476H455.381V114.714Z" fill="#18A402"/>
<path d="M490.143 86.9048H455.381V121.667H490.143V86.9048Z" fill="#18A402"/>
<path d="M524.905 79.9524H490.143V114.714H524.905V79.9524Z" fill="#18A402"/>
<path d="M559.667 79.9524H524.905V114.714H559.667V79.9524Z" fill="#18A402"/>
<path d="M594.428 79.9524H559.667V114.714H594.428V79.9524Z" fill="#18A402"/>
<path d="M629.19 79.9524H594.429V114.714H629.19V79.9524Z" fill="#18A402"/>
</svg>
