<svg width="50" height="35" viewBox="0 0 50 35" fill="none" xmlns="http://www.w3.org/2000/svg">
<path d="M16.4521 0.00278829C18.3204 0.0588505 19.8479 0.944974 20.9443 1.88421C22.0422 2.82481 22.8218 3.91358 23.2318 4.62311L20.6114 6.15084C20.3363 5.67482 19.764 4.87305 18.9779 4.19957C18.1903 3.52491 17.3022 3.07315 16.3619 3.04486C15.4643 3.01803 14.2421 3.36941 12.7308 4.85643C11.195 6.3677 9.4308 8.99129 7.55208 13.3258C5.18048 18.7975 3.78732 23.2693 3.26557 26.5477C3.00405 28.191 2.97393 29.4625 3.10872 30.3774C3.24634 31.3111 3.52419 31.6797 3.68874 31.8101C3.80588 31.9028 4.08441 32.0494 4.79403 31.8784C5.53034 31.7009 6.55448 31.2123 7.87908 30.26C10.5175 28.3632 14.0014 24.8858 18.2765 19.5214L20.6425 21.4236C16.2993 26.8733 12.6123 30.5996 9.64282 32.7344C8.16382 33.7977 6.77469 34.532 5.50278 34.8388C4.20478 35.1517 2.87977 35.0449 1.81256 34.1997C0.793012 33.3923 0.305036 32.1398 0.110974 30.8233C-0.0858035 29.4876 -0.0144 27.8784 0.273734 26.0677C0.85139 22.438 2.34889 17.7037 4.77332 12.1101C6.73149 7.59234 8.68475 4.57589 10.609 2.68225C12.5578 0.764577 14.5405 -0.0543608 16.4521 0.00278829Z" fill="#8D8D8D"/>
<path d="M33.5479 0.00278829C31.6796 0.0588517 30.1521 0.944974 29.0557 1.88421C27.9578 2.82481 27.1782 3.91358 26.7682 4.62311L29.3886 6.15084C29.6637 5.67482 30.236 4.87305 31.0221 4.19957C31.8097 3.52491 32.6978 3.07315 33.6381 3.04486C34.5357 3.01803 35.7579 3.36941 37.2692 4.85643C38.805 6.3677 40.5692 8.99129 42.4479 13.3258C44.8195 18.7975 46.2127 23.2693 46.7344 26.5477C46.9959 28.191 47.0261 29.4625 46.8913 30.3774C46.7537 31.3111 46.4758 31.6797 46.3113 31.8101C46.1941 31.9028 45.9156 32.0494 45.206 31.8784C44.4697 31.7009 43.4455 31.2123 42.1209 30.26C39.4825 28.3632 35.9986 24.8858 31.7235 19.5214L29.3575 21.4236C33.7007 26.8733 37.3877 30.5996 40.3572 32.7344C41.8362 33.7977 43.2253 34.532 44.4972 34.8388C45.7952 35.1517 47.1202 35.0449 48.1874 34.1997C49.207 33.3923 49.695 32.1398 49.889 30.8233C50.0858 29.4876 50.0144 27.8784 49.7263 26.0677C49.1486 22.438 47.6511 17.7037 45.2267 12.1101C43.2685 7.59234 41.3152 4.57589 39.391 2.68225C37.4422 0.764578 35.4595 -0.0543608 33.5479 0.00278829Z" fill="#8D8D8D"/>
<path d="M30.5406 18.9512C31.3773 18.9513 32.0558 19.6326 32.0558 20.473C32.0554 21.3131 31.3771 21.9946 30.5406 21.9948H19.4596C18.623 21.9948 17.9448 21.3132 17.9445 20.473C17.9445 19.6325 18.6228 18.9512 19.4596 18.9512H30.5406ZM28.0785 3.81664C28.9151 3.81691 29.5937 4.49813 29.5937 5.33841C29.5937 6.1787 28.9151 6.85992 28.0785 6.86019H21.9217C21.0851 6.86004 20.4066 6.17878 20.4066 5.33841C20.4066 4.49805 21.0851 3.81679 21.9217 3.81664H28.0785Z" fill="#8D8D8D"/>
<path d="M16.9972 9.02191C16.9972 9.72456 16.446 10.2942 15.766 10.2942C15.086 10.2942 14.5348 9.72456 14.5348 9.02191C14.5348 8.31925 15.086 7.74963 15.766 7.74963C16.446 7.74963 16.9972 8.31925 16.9972 9.02191Z" fill="#8D8D8D"/>
<path d="M19.4596 12.8387C19.4596 13.5414 18.9084 14.111 18.2284 14.111C17.5484 14.111 16.9972 13.5414 16.9972 12.8387C16.9972 12.1361 17.5484 11.5665 18.2284 11.5665C18.9084 11.5665 19.4596 12.1361 19.4596 12.8387Z" fill="#8D8D8D"/>
<path d="M15.766 15.3833C15.766 16.0859 15.2148 16.6555 14.5348 16.6555C13.8548 16.6555 13.3036 16.0859 13.3036 15.3833C13.3036 14.6806 13.8548 14.111 14.5348 14.111C15.2148 14.111 15.766 14.6806 15.766 15.3833Z" fill="#8D8D8D"/>
<path d="M13.3036 11.5664C13.3036 12.2691 12.7524 12.8387 12.0724 12.8387C11.3924 12.8387 10.8412 12.2691 10.8412 11.5664C10.8412 10.8638 11.3924 10.2942 12.0724 10.2942C12.7524 10.2942 13.3036 10.8638 13.3036 11.5664Z" fill="#8D8D8D"/>
<path d="M38.2511 15.7941L36.2876 16.9444L31.4492 8.61027L33.4127 7.4615L38.2511 15.7941Z" fill="#8D8D8D"/>
<path d="M39.5544 11.0066L38.3737 9.12751L30.1439 13.3786L31.3257 15.2587L39.5544 11.0066Z" fill="#8D8D8D"/>
</svg>
