<svg width="21" height="22" viewBox="0 0 21 22" fill="none" xmlns="http://www.w3.org/2000/svg">
<path d="M14.1333 8.32258C14.1333 5.25829 11.6022 2.77419 8.48 2.77419C5.35775 2.77419 2.82667 5.25829 2.82667 8.32258C2.82667 11.3869 5.35775 13.871 8.48 13.871V16.6452C3.79663 16.6452 0 12.919 0 8.32258C0 3.72615 3.79663 0 8.48 0C13.1634 0 16.96 3.72615 16.96 8.32258C16.96 12.919 13.1634 16.6452 8.48 16.6452V13.871C11.6022 13.871 14.1333 11.3869 14.1333 8.32258Z" fill="#8D8D8D"/>
<path d="M20.8908 19.9395L18.6825 21.6734L13.0292 14.7379L15.2375 13.004L20.8908 19.9395Z" fill="#8D8D8D"/>
</svg>
