<svg width="251" height="30" viewBox="0 0 251 30" fill="none" xmlns="http://www.w3.org/2000/svg">
<path d="M5.89286 8.83928H8.83929V5.89285H17.6786V8.83928H20.625V29.4643H14.7321V11.7857H5.89286V29.4643H0V5.89285H5.89286V8.83928ZM23.5791 8.83928H26.5255V5.89285H41.2577V8.83928H44.2041V20.625H29.472V23.5714H44.2041V26.5179H41.2577V29.4643H26.5255V26.5179H23.5791V8.83928ZM29.472 14.7321H38.3112V11.7857H29.472V14.7321ZM58.9439 11.7857H55.9975V14.7321H53.0511V29.4643H47.1582V5.89285H53.0511V8.83928H55.9975V5.89285H61.8903V8.83928H64.8368V11.7857H61.8903V14.7321H58.9439V11.7857ZM82.5153 5.89285V-5.60284e-06H88.4082V29.4643H82.5153V26.5179H79.5689V29.4643H70.7296V26.5179H67.7832V8.83928H70.7296V5.89285H82.5153ZM82.5153 23.5714V11.7857H73.6761V23.5714H82.5153ZM94.3087 26.5179H91.3623V23.5714H103.148V20.625H94.3087V17.6786H91.3623V8.83928H94.3087V5.89285H106.094V8.83928H109.041V11.7857H97.2552V14.7321H106.094V17.6786H109.041V26.5179H106.094V29.4643H94.3087V26.5179ZM111.987 23.5714H117.88V29.4643H111.987V23.5714ZM132.635 29.4643H123.796V26.5179H120.85V5.89285H126.742V23.5714H135.582V5.89285H141.475V29.4643H135.582V26.5179H132.635V29.4643ZM147.375 26.5179H144.429V17.6786H147.375V14.7321H159.161V11.7857H144.429V8.83928H147.375V5.89285H162.107V8.83928H165.054V29.4643H159.161V26.5179H156.214V29.4643H147.375V26.5179ZM150.322 23.5714H159.161V20.625H150.322V23.5714ZM182.717 20.625H179.771V11.7857H182.717V8.83928H188.61V5.89285H194.503V2.94642H203.342V8.83928H197.449V11.7857H191.556V14.7321H188.61V17.6786H191.556V20.625H197.449V23.5714H203.342V29.4643H194.503V26.5179H188.61V23.5714H182.717V20.625ZM212.197 11.7857H215.143V8.83928H218.089V5.89285H212.197V8.83928H206.304V2.94642H209.25V-5.60284e-06H221.036V2.94642H223.982V11.7857H221.036V14.7321H218.089V20.625H212.197V11.7857ZM212.197 23.5714H218.089V29.4643H212.197V23.5714ZM226.929 23.5714H232.822V20.625H238.714V17.6786H241.661V14.7321H238.714V11.7857H232.822V8.83928H226.929V2.94642H235.768V5.89285H241.661V8.83928H247.554V11.7857H250.5V20.625H247.554V23.5714H241.661V26.5179H235.768V29.4643H226.929V23.5714Z" fill="#18A402"/>
</svg>
