<svg width="40" height="41" viewBox="0 0 40 41" fill="none" xmlns="http://www.w3.org/2000/svg">
<path d="M14.3507 3.76373C14.9568 4.68066 16.3349 6.29152 18.4581 7.01013C20.4892 7.6974 23.4954 7.66551 27.6382 4.79317L29.6284 3.41362L29.7686 5.81217C29.8764 7.66015 30.4001 10.4695 31.5829 12.8393C32.7702 15.2179 34.4674 16.8813 36.8328 17.0981L40 17.3882L37.5919 19.4431C36.2277 20.6074 34.4629 22.7166 33.6207 25.1808C32.8019 27.5772 32.8524 30.2754 35 32.9225L38.0058 36.6262L33.4845 35.0167C31.6801 34.3745 28.7178 33.7929 25.8001 34.1453C22.9163 34.4937 20.2014 35.7287 18.5387 38.6028L17.1515 41L16.1068 38.4395C14.6621 34.9009 11.1577 30.7337 3.45279 30.2157L0.279027 30.0027L2.63422 27.8903C2.85505 27.6923 3.20383 27.1198 3.48717 26.0587C3.75537 25.0541 3.91828 23.7906 3.91828 22.4361C3.91821 19.6761 3.25011 16.8442 1.80508 15.0954L0 12.9124H2.85374C5.12339 12.9124 7.38088 12.448 9.03994 11.2259C10.6279 10.0559 11.8633 8.04751 11.8633 4.49532V0L14.3507 3.76373ZM14.2462 7.63851C13.6798 10.2121 12.3995 12.0884 10.6586 13.371C9.02514 14.5742 7.08668 15.1811 5.18514 15.4351C6.22571 17.5988 6.6265 20.1593 6.62655 22.4361C6.62655 23.9847 6.44318 25.4809 6.10685 26.7407C6.01245 27.0943 5.8976 27.4461 5.76699 27.7871C11.9328 28.7637 15.5782 31.9978 17.576 35.3485C19.7526 32.9147 22.6636 31.8299 25.4708 31.4907C27.4514 31.2515 29.4214 31.3763 31.1386 31.6684C30.111 29.1118 30.2891 26.5634 31.054 24.3251C31.7469 22.2974 32.9205 20.5124 34.1087 19.1361C31.7883 18.1308 30.198 16.1152 29.1537 14.0229C28.1925 12.0973 27.6179 9.975 27.3155 8.15454C23.4457 10.3021 20.1816 10.4211 17.58 9.54063C16.2331 9.08476 15.1261 8.37928 14.2462 7.63851Z" fill="#8D8D8D"/>
<path d="M16.9215 25.2251V24.7248C16.9215 24.1184 17.0519 23.5953 17.3128 23.1556C17.5737 22.7159 17.896 22.3218 18.2797 21.973C18.6787 21.6243 19.0777 21.2908 19.4767 20.9724C19.9678 20.5782 20.3822 20.1916 20.7198 19.8126C21.0575 19.4184 21.2263 18.9408 21.2263 18.3798C21.2263 17.5763 20.9884 17.0078 20.5126 16.6742C20.0369 16.3255 19.2005 16.1511 18.0034 16.1511C17.3589 16.1511 16.7143 16.2345 16.0697 16.4013C15.4251 16.5529 14.8573 16.7424 14.3662 16.9699V14.8776C14.888 14.6199 15.5172 14.4152 16.2539 14.2636C17.0059 14.112 17.8039 14.0362 18.648 14.0362C20.3362 14.0362 21.61 14.4076 22.4694 15.1505C23.3288 15.8782 23.7585 16.894 23.7585 18.1979C23.7585 19.0469 23.5513 19.7368 23.137 20.2674C22.738 20.7829 22.2008 21.3135 21.5255 21.8593C21.1112 22.208 20.7429 22.5188 20.4206 22.7917C20.1136 23.0647 19.8681 23.3603 19.6839 23.6787C19.5151 23.9819 19.4307 24.3685 19.4307 24.8385V25.2251H16.9215ZM16.8294 28.9093V27.0445H19.4998V28.9093H16.8294Z" fill="#8D8D8D"/>
</svg>
