<svg width="455" height="70" viewBox="0 0 455 70" fill="none" xmlns="http://www.w3.org/2000/svg">
<rect width="9" height="10" transform="matrix(-1 0 0 1 36 59.9999)" fill="#18A402"/>
<rect width="9" height="10" transform="matrix(-1 0 0 1 27 50.0001)" fill="#18A402"/>
<rect width="9" height="10" transform="matrix(-1 0 0 1 27 10.0001)" fill="#18A402"/>
<rect width="9" height="10" transform="matrix(-1 0 0 1 36 0)" fill="#18A402"/>
<rect width="9" height="10" transform="matrix(-1 0 0 1 63 0)" fill="#18A402"/>
<rect width="9" height="10" transform="matrix(-1 0 0 1 54 10.0001)" fill="#18A402"/>
<rect width="9" height="10" transform="matrix(-1 0 0 1 72 0)" fill="#18A402"/>
<rect width="9" height="10" transform="matrix(-1 0 0 1 81 0)" fill="#18A402"/>
<rect width="9" height="10" transform="matrix(-1 0 0 1 90.0001 10.0001)" fill="#18A402"/>
<rect width="9" height="10" transform="matrix(-1 0 0 1 90.0001 19.9999)" fill="#18A402"/>
<rect width="9" height="10" transform="matrix(-1 0 0 1 81 30)" fill="#18A402"/>
<rect width="9" height="10" transform="matrix(-1 0 0 1 72 30)" fill="#18A402"/>
<rect width="9" height="10" transform="matrix(-1 0 0 1 72 39.7143)" fill="#18A402"/>
<rect width="9" height="10" transform="matrix(-1 0 0 1 72 59.9999)" fill="#18A402"/>
<rect width="9" height="10" transform="matrix(-1 0 0 1 18 40)" fill="#18A402"/>
<rect width="9" height="10" transform="matrix(-1 0 0 1 18 19.9999)" fill="#18A402"/>
<rect width="9" height="10" transform="matrix(-1 0 0 1 9 30)" fill="#18A402"/>
<rect width="9" height="10" transform="matrix(1 0 0 -1 99.0001 10.0001)" fill="#18A402"/>
<rect width="9" height="10" transform="matrix(1 0 0 -1 108 19.9999)" fill="#18A402"/>
<rect width="9" height="10" transform="matrix(1 0 0 -1 108 59.9999)" fill="#18A402"/>
<rect width="9" height="10" transform="matrix(1 0 0 -1 99.0001 70)" fill="#18A402"/>
<rect width="9" height="10" transform="matrix(1 0 0 -1 117 30)" fill="#18A402"/>
<rect width="9" height="10" transform="matrix(1 0 0 -1 117 50.0001)" fill="#18A402"/>
<rect width="9" height="10" transform="matrix(1 0 0 -1 126 40)" fill="#18A402"/>
<rect width="9" height="10" transform="matrix(-1 0 0 1 193 59.9999)" fill="#18A402"/>
<rect width="9" height="10" transform="matrix(-1 0 0 1 184 50.0001)" fill="#18A402"/>
<rect width="9" height="10" transform="matrix(-1 0 0 1 184 10.0001)" fill="#18A402"/>
<rect width="9" height="10" transform="matrix(-1 0 0 1 193 0)" fill="#18A402"/>
<rect width="9" height="10" transform="matrix(-1 0 0 1 220 0)" fill="#18A402"/>
<rect width="9" height="10" transform="matrix(-1 0 0 1 211 10.0001)" fill="#18A402"/>
<rect width="9" height="10" transform="matrix(-1 0 0 1 229 0)" fill="#18A402"/>
<rect width="9" height="10" transform="matrix(-1 0 0 1 238 0)" fill="#18A402"/>
<rect width="9" height="10" transform="matrix(-1 0 0 1 247 10.0001)" fill="#18A402"/>
<rect width="9" height="10" transform="matrix(-1 0 0 1 247 19.9999)" fill="#18A402"/>
<rect width="9" height="10" transform="matrix(-1 0 0 1 238 30)" fill="#18A402"/>
<rect width="9" height="10" transform="matrix(-1 0 0 1 229 30)" fill="#18A402"/>
<rect width="9" height="10" transform="matrix(-1 0 0 1 229 39.7143)" fill="#18A402"/>
<rect width="9" height="10" transform="matrix(-1 0 0 1 229 59.9999)" fill="#18A402"/>
<rect width="9" height="10" transform="matrix(-1 0 0 1 175 40)" fill="#18A402"/>
<rect width="9" height="10" transform="matrix(-1 0 0 1 175 19.9999)" fill="#18A402"/>
<rect width="9" height="10" transform="matrix(-1 0 0 1 166 30)" fill="#18A402"/>
<rect width="9" height="10" transform="matrix(1 0 0 -1 256 10.0001)" fill="#18A402"/>
<rect width="9" height="10" transform="matrix(1 0 0 -1 265 19.9999)" fill="#18A402"/>
<rect width="9" height="10" transform="matrix(1 0 0 -1 265 59.9999)" fill="#18A402"/>
<rect width="9" height="10" transform="matrix(1 0 0 -1 256 70)" fill="#18A402"/>
<rect width="9" height="10" transform="matrix(1 0 0 -1 274 30)" fill="#18A402"/>
<rect width="9" height="10" transform="matrix(1 0 0 -1 274 50.0001)" fill="#18A402"/>
<rect width="9" height="10" transform="matrix(1 0 0 -1 283 40)" fill="#18A402"/>
<rect width="9" height="10" transform="matrix(-1 0 0 1 350 59.9999)" fill="#18A402"/>
<rect width="9" height="10" transform="matrix(-1 0 0 1 341 50.0001)" fill="#18A402"/>
<rect width="9" height="10" transform="matrix(-1 0 0 1 341 10.0001)" fill="#18A402"/>
<rect width="9" height="10" transform="matrix(-1 0 0 1 350 0)" fill="#18A402"/>
<rect width="9" height="10" transform="matrix(-1 0 0 1 377 0)" fill="#18A402"/>
<rect width="9" height="10" transform="matrix(-1 0 0 1 368 10.0001)" fill="#18A402"/>
<rect width="9" height="10" transform="matrix(-1 0 0 1 386 0)" fill="#18A402"/>
<rect width="9" height="10" transform="matrix(-1 0 0 1 395 0)" fill="#18A402"/>
<rect width="9" height="10" transform="matrix(-1 0 0 1 404 10.0001)" fill="#18A402"/>
<rect width="9" height="10" transform="matrix(-1 0 0 1 404 19.9999)" fill="#18A402"/>
<rect width="9" height="10" transform="matrix(-1 0 0 1 395 30)" fill="#18A402"/>
<rect width="9" height="10" transform="matrix(-1 0 0 1 386 30)" fill="#18A402"/>
<rect width="9" height="10" transform="matrix(-1 0 0 1 386 39.7143)" fill="#18A402"/>
<rect width="9" height="10" transform="matrix(-1 0 0 1 386 59.9999)" fill="#18A402"/>
<rect width="9" height="10" transform="matrix(-1 0 0 1 332 40)" fill="#18A402"/>
<rect width="9" height="10" transform="matrix(-1 0 0 1 332 19.9999)" fill="#18A402"/>
<rect width="9" height="10" transform="matrix(-1 0 0 1 323 30)" fill="#18A402"/>
<rect width="9" height="10" transform="matrix(1 0 0 -1 413 10.0001)" fill="#18A402"/>
<rect width="9" height="10" transform="matrix(1 0 0 -1 422 19.9999)" fill="#18A402"/>
<rect width="9" height="10" transform="matrix(1 0 0 -1 422 59.9999)" fill="#18A402"/>
<rect width="9" height="10" transform="matrix(1 0 0 -1 413 70)" fill="#18A402"/>
<rect width="9" height="10" transform="matrix(1 0 0 -1 431 30)" fill="#18A402"/>
<rect width="9" height="10" transform="matrix(1 0 0 -1 431 50.0001)" fill="#18A402"/>
<rect width="9" height="10" transform="matrix(1 0 0 -1 440 40)" fill="#18A402"/>
</svg>
